<svg fill="none" height="169" width="233" xmlns="http://www.w3.org/2000/svg"><g stroke-linecap="round" stroke-linejoin="round" stroke-miterlimit="10"><path d="m56.36 150.18v13.23" stroke="#00112c"/><path d="m60.61 167.83h-8.81a4.42 4.42 0 0 1 8.82 0z" fill="#00112c" stroke="#00112c"/><path d="m1 81.79v6.06l23.49 64.53h87.44v-2.2l-24.9-68.4h-86.03z" fill="#f3f6f9" stroke="#00112c"/><path d="m1 81.79h86.04l24.89 68.39h-86.04l-24.89-68.4z" fill="#fff" stroke="#00112c"/><path d="m67.92 145.5c.32-.38.13-1.08-.43-1.54-.56-.47-1.27-.53-1.6-.14s-.14 1.08.42 1.55 1.28.53 1.6.14z" fill="#fff" stroke="#00112c"/><path d="m107.91 139.15h-85.74" stroke="#00112c"/><path d="m116.77 167.83-51.82-4.2v4.2z" fill="#00112c" stroke="#00112c"/><path d="m110.33 159.9-7.28-2.23c-.28-.09-.62.06-.82.34-.29.42-.18.94.22 1.08l5.54 2.51z" fill="#fff" stroke="#00112c"/><path d="m118.7 163.3-8.36-3.4-8.5 1.74a1.1 1.1 0 0 0 .3 2.19l8.08-.47 2.9 2.55a7.4 7.4 0 0 0 3 1.6l5.25.28-2.46-4.3a.4.4 0 0 0 -.2-.2zm112.98-9.68v-45.12c0-8.7.83-15.74-7.87-15.74v74.96h7.72c.25-2.41.15-11.03.15-14.09z" fill="#fff" stroke="#00112c"/><path d="m1 167.83h230.53" stroke="#00112c"/><path d="m213.24 102.29a11.67 11.67 0 0 0 -7.09-8.3l-1.3-5.83a.97.97 0 0 0 -1.23-.71l-9.44 3.01a.96.96 0 0 0 -.64 1.17l1.1 3.95a11.7 11.7 0 0 0 -2.74 2.98l-.56.88a60.01 60.01 0 0 0 -4.83 9.23l-19.19 45.91-48.62 8.71-.87 4.53h105.99v-22.42l-10.58-43.1z" fill="#00112c" stroke="#00112c"/><path d="m182.09 167.83 14.13-29.98" stroke="#fff"/><path d="m207.95 59.84a7 7 0 1 0 0-13.98 7 7 0 0 0 0 13.98z" fill="#00112c" stroke="#00112c"/></g><path d="m204.26 89.62-8.64-31.1-18.14 3.48 2.02 16.58c.12.96.32 1.9.66 2.81 3.14 8.19 12.69 5.96 12.69 5.96l1.33 3.11" fill="#fff"/><path d="m204.26 89.62-8.64-31.1-18.14 3.48 2.02 16.58c.12.96.32 1.9.66 2.81 3.14 8.19 12.69 5.96 12.69 5.96l1.33 3.11" stroke="#00112c" stroke-linecap="round" stroke-linejoin="round" stroke-miterlimit="10"/><path d="m194.76 56.25a11 11 0 1 1 -21.98 0 11 11 0 0 1 21.98 0z" fill="#00112c" stroke="#00112c"/><path d="m186.2 45.94 4-.08c6.2-.12 14.79 1.28 16.44 7.26l1.36 3.9a27.73 27.73 0 0 1 -5.57 27.72l-1.56-1.41a34.66 34.66 0 0 1 -10.55-18.34l-4.11-19.05z" fill="#00112c" stroke="#00112c" stroke-linecap="round" stroke-linejoin="round" stroke-miterlimit="10"/><path d="m207.4 55.98a21.58 21.58 0 0 0 -4.44-5.55l-7.7 26.33 5.7 15s21.85-2.67 26.28-11.56c0 0-10.75-7.9-19.84-24.22z" fill="#00112c" stroke="#00112c" stroke-linecap="round" stroke-linejoin="round" stroke-miterlimit="10"/><path d="m197.48 71.4a2.3 2.3 0 0 1 1.11 2.5l-.2.96a4.15 4.15 0 0 1 -3.96 3.27l-1.29-3.67 1.11-2.13a2.33 2.33 0 0 1 3.23-.93z" fill="#fff" stroke="#00112c"/><path d="m89.8.83-1.2 2.66 6.76 3.05 1.2-2.67-6.75-3.04z" fill="#0abf53"/><path d="m145.27 9.94-1.38-2.58-6.53 3.5 1.38 2.57 6.53-3.5z" fill="#ffba59"/><path d="m83.23 110.5-1.17-2.69-6.8 2.96 1.17 2.68z" fill="#ff9500" stroke="#ff9500" stroke-linecap="round" stroke-linejoin="round" stroke-miterlimit="10"/><path d="m79.05 33.6-1.2 2.66 6.75 3.04 1.2-2.66-6.75-3.05zm68.83 7.66 1.36-2.59-6.56-3.44-1.36 2.59z" fill="#00112c"/><path d="m93.1 53.2 2.66 1.2 3.04-6.75-2.66-1.2-3.05 6.76zm-27.19 44.74 2.9.35.88-7.36-2.9-.34zm111.1-85.42-2.58 1.38 3.5 6.53 2.57-1.38zm-54 98.08-1.2 2.66 6.75 3.04 1.2-2.66z" fill="#0abf53"/><path d="m79.2 57.63-1.37-2.58-6.53 3.5 1.37 2.57 6.54-3.5zm29.1 30.35-2.53-1.46-3.7 6.41 2.53 1.46z" fill="#ff9500" stroke="#ff9500" stroke-linecap="round" stroke-linejoin="round" stroke-miterlimit="10"/><path d="m61.4 114.42-1.08 2.72 6.89 2.73 1.07-2.72zm28.6-37.18 1.35-2.59-6.56-3.44-1.36 2.59z" fill="#00112c"/><path d="m48.1 86.56 2.67 1.2 3.04-6.76-2.66-1.2zm73.31-18.13 2.67 1.2 3.04-6.76-2.66-1.2zm-8.22-41.09-2.57 1.38 3.49 6.54 2.58-1.38z" fill="#0abf53"/></svg>