<?xml version="1.0" encoding="utf-8"?>
<!-- Generator: Adobe Illustrator 21.1.0, SVG Export Plug-In . SVG Version: 6.00 Build 0)  -->
<svg version="1.1" id="Layer_1" xmlns="http://www.w3.org/2000/svg" xmlns:xlink="http://www.w3.org/1999/xlink" x="0px" y="0px"
	 viewBox="0 0 40 40" style="enable-background:new 0 0 40 40;" xml:space="preserve">
<style type="text/css">
	.st0{fill:#00112C;}
</style>
<g>
	<path class="st0" d="M29,0H11C9.9,0,9,0.9,9,2v31c0,1.1,0.9,2,2,2h1v3c0,1.1,0.9,2,2,2h12c1.1,0,2-0.9,2-2v-3h1c1.1,0,2-0.9,2-2V2
		C31,0.9,30.1,0,29,0z M29,3v12H12c-0.6,0-1-0.4-1-1V2h17C28.6,2,29,2.4,29,3z M15,38c-0.6,0-1-0.4-1-1v-2h12v3H15z M11,32V17h17
		c0.6,0,1,0.4,1,1v15H12C11.4,33,11,32.6,11,32z"/>
	<circle class="st0" cx="16" cy="21" r="1"/>
	<circle class="st0" cx="20" cy="21" r="1"/>
	<circle class="st0" cx="24" cy="21" r="1"/>
	<circle class="st0" cx="16" cy="25" r="1"/>
	<circle class="st0" cx="20" cy="25" r="1"/>
	<circle class="st0" cx="24" cy="25" r="1"/>
	<circle class="st0" cx="16" cy="29" r="1"/>
	<circle class="st0" cx="20" cy="29" r="1"/>
	<circle class="st0" cx="24" cy="29" r="1"/>
</g>
</svg>
