<?xml version="1.0" encoding="UTF-8"?>
<svg width="160px" height="70px" viewBox="0 0 160 70" version="1.1" xmlns="http://www.w3.org/2000/svg" xmlns:xlink="http://www.w3.org/1999/xlink">
    <!-- Generator: Sketch 50.2 (55047) - http://www.bohemiancoding.com/sketch -->
    <title>american-express-logobar-color-card-svg</title>
    <desc>Created with Sketch.</desc>
    <defs>
        <rect id="path-1" x="0" y="0" width="110" height="70" rx="6.82926829"></rect>
        <rect id="path-3" x="0" y="0" width="110" height="70" rx="6.82926829"></rect>
        <rect id="path-5" x="0" y="0" width="110" height="70" rx="6.82926829"></rect>
        <radialGradient cx="17.5409177%" cy="17.466056%" fx="17.5409177%" fy="17.466056%" r="93.2873442%" gradientTransform="translate(0.175409,0.174661),scale(1.000000,0.984167),translate(-0.175409,-0.174661)" id="radialGradient-7">
            <stop stop-color="#9DD5F6" offset="0%"></stop>
            <stop stop-color="#98D3F5" offset="7.11%"></stop>
            <stop stop-color="#89CEF3" offset="15.75%"></stop>
            <stop stop-color="#70C6EF" offset="25.16%"></stop>
            <stop stop-color="#4EBBEA" offset="35.14%"></stop>
            <stop stop-color="#23ADE3" offset="45.46%"></stop>
            <stop stop-color="#0DA6E0" offset="50%"></stop>
            <stop stop-color="#2E77BC" offset="100%"></stop>
        </radialGradient>
    </defs>
    <g id="american-express-logobar-color-card-svg" stroke="none" stroke-width="1" fill="none" fill-rule="evenodd">
        <g id="amex_65x41" transform="translate(25.000000, 0.000000)">
            <g id="Rectangle-56-Clipped">
                <mask id="mask-2" fill="white">
                    <use xlink:href="#path-1"></use>
                </mask>
                <g id="path-1"></g>
                <g id="Rectangle-56" mask="url(#mask-2)">
                    <g id="path-1-Clipped">
                        <mask id="mask-4" fill="white">
                            <use xlink:href="#path-3"></use>
                        </mask>
                        <g id="path-1"></g>
                        <rect id="path-1" stroke="#D6D6D6" stroke-width="2.56097561" fill="#FFFFFF" fill-rule="nonzero" mask="url(#mask-4)" x="0" y="0" width="110" height="70" rx="6.82926829"></rect>
                    </g>
                </g>
            </g>
            <g id="American_Express_logo-Clipped">
                <mask id="mask-6" fill="white">
                    <use xlink:href="#path-5"></use>
                </mask>
                <g id="path-1"></g>
                <g id="American_Express_logo" mask="url(#mask-6)">
                    <g transform="translate(0.000000, -23.902439)" id="Layer_1">
                        <g>
                            <g id="Group" fill-rule="nonzero">
                                <path d="M110.093685,0.23726898 L0.25042591,0.23726898 L0.25042591,112.509935 L110.093685,112.509935 L110.093685,75.4570904 C110.530027,74.8147183 110.745471,73.9930059 110.745471,72.988382 C110.745471,71.8385401 110.530027,71.1263364 110.093685,70.5264188" id="Shape" fill="url(#radialGradient-7)"></path>
                                <path d="M10.2102445,48.8194813 L8.08456357,43.5753608 L5.97103158,48.8194813 L10.2102445,48.8194813 Z M57.0387141,46.7312763 C56.611932,46.9935417 56.1071612,47.0022707 55.5024551,47.0022707 L51.7296064,47.0022707 L51.7296064,44.08045 L55.5537943,44.08045 C56.0950121,44.08045 56.6597441,44.1050497 57.0265652,44.317719 C57.4294412,44.5093593 57.6786916,44.9172398 57.6786916,45.4806544 C57.6786916,46.0555755 57.4415903,46.5182103 57.0387141,46.7312763 Z M83.953817,48.8194813 L81.8046218,43.5753608 L79.6671839,48.8194813 L83.953817,48.8194813 Z M33.7824161,54.4956853 L30.5985976,54.4956853 L30.5868405,44.193133 L26.083485,54.4956853 L23.3566251,54.4956853 L18.8415126,44.1840072 L18.8415126,54.4956853 L12.5248227,54.4956853 L11.3314785,51.5615648 L4.86508178,51.5615648 L3.65958866,54.4956853 L0.286480972,54.4956853 L5.84797408,41.341144 L10.4622381,41.341144 L15.7443045,53.7957814 L15.7443045,41.341144 L20.8131756,41.341144 L24.8776,50.2649176 L28.6112582,41.341144 L33.7820244,41.341144 L33.7820244,54.4956853 L33.7824161,54.4956853 Z M46.4718381,54.4956853 L36.0969943,54.4956853 L36.0969943,41.341144 L46.4718381,41.341144 L46.4718381,44.08045 L39.2028244,44.08045 L39.2028244,46.4515527 L46.2974412,46.4515527 L46.2974412,49.1480075 L39.2028244,49.1480075 L39.2028244,51.7750274 L46.4718381,51.7750274 L46.4718381,54.4956853 Z M61.1000033,44.883911 C61.1000033,46.9812418 59.71737,48.064823 58.9116178,48.3901752 C59.5911773,48.652044 60.1715854,49.1146788 60.4478769,49.4979595 C60.8864161,50.1522347 60.9620535,50.7366781 60.9620535,51.9115167 L60.9620535,54.4956853 L57.8295742,54.4956853 L57.817817,52.8367864 C57.817817,52.0452284 57.8926705,50.9068929 57.3275465,50.2740434 C56.8737231,49.8114084 56.1820146,49.7110253 55.0639158,49.7110253 L51.7299984,49.7110253 L51.7299984,54.4956853 L48.6245603,54.4956853 L48.6245603,41.341144 L55.7677733,41.341144 C57.3549797,41.341144 58.5244178,41.3835984 59.5284729,41.971216 C60.5109733,42.5588337 61.1000033,43.4166523 61.1000033,44.883911 Z M66.070115,54.4956853 L62.9011886,54.4956853 L62.9011886,41.341144 L66.070115,41.341144 L66.070115,54.4956853 Z M102.833736,54.4956853 L98.4326672,54.4956853 L92.5458947,44.622439 L92.5458947,54.4956853 L86.2209749,54.4956853 L85.0123465,51.5615648 L78.5608421,51.5615648 L77.3882689,54.4956853 L73.7541538,54.4956853 C72.2445441,54.4956853 70.3332341,54.1576365 69.2507984,53.0407266 C68.1593489,51.9238165 67.5914819,50.4109292 67.5914819,48.0187977 C67.5914819,46.0678753 67.9308696,44.2843902 69.2656907,42.8750601 C70.2697458,41.8252044 71.8420599,41.341144 73.9822412,41.341144 L76.9889198,41.341144 L76.9889198,44.1598042 L74.0453377,44.1598042 C72.9119546,44.1598042 72.2719773,44.3304156 71.6555141,44.9390622 C71.1260535,45.4929542 70.7627595,46.5400327 70.7627595,47.9188114 C70.7627595,49.3281416 71.0394429,50.3442718 71.6167158,51.0080693 C72.0948372,51.5286327 72.9636859,51.6865476 73.7811951,51.6865476 L75.1759773,51.6865476 L79.5531401,41.3415407 L84.2065943,41.3415407 L89.4647546,53.7838784 L89.4647546,41.3415407 L94.1934542,41.3415407 L99.6526608,50.5029801 L99.6526608,41.3415407 L102.833736,41.3415407 L102.833736,54.4956853 Z M0.25042591,57.0794572 L5.55679028,57.0794572 L6.75326963,54.1576365 L9.43192551,54.1576365 L10.6252696,57.0794572 L21.0659531,57.0794572 L21.0659531,54.8456372 L21.997898,57.0889798 L27.4179141,57.0889798 L28.3498592,54.8123085 L28.3498592,57.0794572 L54.2969619,57.0794572 L54.284813,52.2832909 L54.7868405,52.2832909 C55.1383773,52.2955908 55.2410559,52.3285229 55.2410559,52.9161404 L55.2410559,57.0794572 L68.6609846,57.0794572 L68.6609846,55.962944 C69.7434203,56.5501648 71.4270348,57.0794572 73.6424615,57.0794572 L79.2882137,57.0794572 L80.4964502,54.1576365 L83.175106,54.1576365 L84.356693,57.0794572 L95.2363077,57.0794572 L95.2363077,54.304045 L96.8838672,57.0794572 L105.602138,57.0794572 L105.602138,38.7327722 L96.9740049,38.7327722 L96.9740049,40.899538 L95.7657685,38.7327722 L86.9122916,38.7327722 L86.9122916,40.899538 L85.8028146,38.7327722 L73.8438996,38.7327722 C71.8420599,38.7327722 70.0824161,39.0156699 68.6609846,39.8040536 L68.6609846,38.7327722 L60.4082947,38.7327722 L60.4082947,39.8040536 C59.503783,38.9914669 58.2712485,38.7327722 56.9007643,38.7327722 L26.7505037,38.7327722 L24.7275013,43.4714067 L22.6500244,38.7327722 L13.1534348,38.7327722 L13.1534348,40.899538 L12.1101895,38.7327722 L4.01112551,38.7327722 L0.250034007,47.4557799 L0.250034007,57.0794572 L0.25042591,57.0794572 Z" id="Shape" fill="#FFFFFF"></path>
                                <path d="M110.745471,66.7824888 L105.085218,66.7824888 C104.520094,66.7824888 104.144651,66.8039144 103.828385,67.0201546 C103.500755,67.2332205 103.374562,67.549447 103.374562,67.9668498 C103.374562,68.4632103 103.651245,68.8008623 104.053729,68.9468739 C104.38136,69.0623343 104.733289,69.0960598 105.250601,69.0960598 L106.933823,69.1416883 C108.63233,69.1841428 109.766105,69.4797371 110.457422,70.2006699 C110.583223,70.3010529 110.65886,70.4137359 110.745471,70.5264188 L110.745471,66.7824888 Z M110.745471,75.4570904 C109.991058,76.5740003 108.52103,77.1401924 106.530947,77.1401924 L100.533266,77.1401924 L100.533266,74.3187547 L106.506649,74.3187547 C107.099206,74.3187547 107.51384,74.2397974 107.763482,73.9930059 C107.979812,73.7894625 108.130695,73.4938682 108.130695,73.1347904 C108.130695,72.7515098 107.979812,72.4471865 107.751333,72.2646719 C107.525989,72.063906 107.197966,71.9726487 106.65714,71.9726487 C103.740991,71.8722656 100.102957,72.063906 100.102957,67.9001924 C100.102957,65.9917245 101.299828,63.9828736 104.558892,63.9828736 L110.745079,63.9828736 L110.745471,61.3649794 L104.997432,61.3649794 C103.26287,61.3649794 102.002902,61.7855565 101.110539,62.4394349 L101.110539,61.3649794 L92.608991,61.3649794 C91.2494802,61.3649794 89.6536518,61.7062023 88.8988469,62.4394349 L88.8988469,61.3649794 L73.717315,61.3649794 L73.717315,62.4394349 C72.5090786,61.5570164 70.4704,61.3649794 69.5294412,61.3649794 L59.5155401,61.3649794 L59.5155401,62.4394349 C58.559689,61.5022621 56.4340081,61.3649794 55.1383773,61.3649794 L43.931132,61.3649794 L41.3665198,64.1749107 L38.9645474,61.3649794 L22.2232421,61.3649794 L22.2232421,79.7243611 L38.6494575,79.7243611 L41.2920582,76.8699914 L43.7814251,79.7243611 L53.9066267,79.7334869 L53.9066267,75.4146359 L54.9020599,75.4146359 C56.2455028,75.4356648 57.8299659,75.3809104 59.2278833,74.7690896 L59.2278833,79.7239643 L67.5793328,79.7239643 L67.5793328,74.9389075 L67.982209,74.9389075 C68.4963854,74.9389075 68.5469408,74.9603332 68.5469408,75.4804998 L68.5469408,79.7235675 L93.9171628,79.7235675 C95.5278833,79.7235675 97.211498,79.3061645 98.1438348,78.548729 L98.1438348,79.7235675 L106.191168,79.7235675 C107.865768,79.7235675 109.501179,79.4859018 110.745471,78.8772552 L110.745471,75.4570904 Z M98.35703,70.2006699 C98.9617361,70.8343129 99.2858397,71.6342031 99.2858397,72.988382 C99.2858397,75.8189453 97.5391288,77.1401924 94.4070412,77.1401924 L88.3580211,77.1401924 L88.3580211,74.3187547 L94.3827434,74.3187547 C94.9717733,74.3187547 95.3895418,74.2397974 95.6513328,73.9930059 C95.8649198,73.7894625 96.0181538,73.4938682 96.0181538,73.1347904 C96.0181538,72.7515098 95.8523789,72.4471865 95.6391839,72.2646719 C95.4016907,72.063906 95.0740599,71.9726487 94.5332341,71.9726487 C91.6288421,71.8722656 87.9915919,72.063906 87.9915919,67.9001924 C87.9915919,65.9917245 89.1759223,63.9828736 92.4318511,63.9828736 L98.6580114,63.9828736 L98.6580114,66.7832823 L92.9609198,66.7832823 C92.3961879,66.7832823 92.0289749,66.804708 91.7166284,67.0209482 C91.3764566,67.234014 91.2502639,67.5502404 91.2502639,67.9676434 C91.2502639,68.4640038 91.5390963,68.8016558 91.9298234,68.9476675 C92.2574542,69.0631279 92.609383,69.0968533 93.1384518,69.0968533 L94.8103093,69.1424819 C96.4962753,69.1841428 97.6535643,69.4793405 98.35703,70.2006699 Z M70.3328421,69.388083 C69.9174251,69.637652 69.4036405,69.6590776 68.7993264,69.6590776 L65.0264777,69.6590776 L65.0264777,66.7039283 L68.8506656,66.7039283 C69.4036405,66.7039283 69.9570073,66.7158313 70.3328421,66.941594 C70.7353264,67.15466 70.9759546,67.5621436 70.9759546,68.1251615 C70.9759546,68.6881793 70.7353264,69.1416883 70.3328421,69.388083 Z M72.208489,71.0255565 C72.8998057,71.2838543 73.4649295,71.746886 73.7298559,72.1301666 C74.1683951,72.7725387 74.2318833,73.3720595 74.2444244,74.5318207 L74.2444244,77.1401924 L71.1264454,77.1401924 L71.1264454,75.4939901 C71.1264454,74.7024322 71.2016907,73.530371 70.6244178,72.9185503 C70.1705943,72.4471865 69.4788859,72.3345036 68.3458947,72.3345036 L65.0268696,72.3345036 L65.0268696,77.1401924 L61.9061474,77.1401924 L61.9061474,63.9824768 L69.0764016,63.9824768 C70.6487158,63.9824768 71.7938559,64.0527052 72.8131951,64.6034232 C73.7933441,65.202944 74.4098073,66.0242597 74.4098073,67.5252439 C74.4094154,69.6253521 73.0259984,70.6970303 72.208489,71.0255565 Z M76.1318284,63.9824768 L86.4972665,63.9824768 L86.4972665,66.7035315 L79.2247255,66.7035315 L79.2247255,69.095663 L86.3197344,69.095663 L86.3197344,71.7802147 L79.2247255,71.7802147 L79.2247255,74.3981089 L86.4972665,74.410012 L86.4972665,77.1401924 L76.1318284,77.1401924 L76.1318284,63.9824768 Z M55.1779595,70.0546582 L51.1644826,70.0546582 L51.1644826,66.7039283 L55.2140146,66.7039283 C56.3352485,66.7039283 57.1135676,67.166563 57.1135676,68.3171986 C57.1135676,69.4551374 56.3713037,70.0546582 55.1779595,70.0546582 Z M48.0711936,75.9435315 L43.3029117,70.5839506 L48.0711936,65.3945844 L48.0711936,75.9435315 Z M35.7572146,74.3981089 L28.1213797,74.3981089 L28.1213797,71.7802147 L34.9397053,71.7802147 L34.9397053,69.095663 L28.1213797,69.095663 L28.1213797,66.7035315 L35.9077053,66.7035315 L39.304719,70.5379251 L35.7572146,74.3981089 Z M60.4478769,68.3171986 C60.4478769,71.9722519 57.7543288,72.7269099 55.0396178,72.7269099 L51.1644826,72.7269099 L51.1644826,77.1401924 L45.1280033,77.1401924 L41.3038154,72.7844417 L37.3295288,77.1401924 L25.0276987,77.1401924 L25.0276987,63.9824768 L37.5188178,63.9824768 L41.3398705,68.2953762 L45.2902511,63.9824768 L55.2140146,63.9824768 C57.6786916,63.9824768 60.4478769,64.6732549 60.4478769,68.3171986 Z" id="Shape" fill="#FFFFFF"></path>
                            </g>
                        </g>
                    </g>
                </g>
            </g>
        </g>
    </g>
</svg>