<?xml version="1.0" encoding="UTF-8"?>
<svg width="160px" height="70px" viewBox="0 0 160 70" version="1.1" xmlns="http://www.w3.org/2000/svg" xmlns:xlink="http://www.w3.org/1999/xlink">
    <!-- Generator: Sketch 50.2 (55047) - http://www.bohemiancoding.com/sketch -->
    <title>unionpay-logobar-color-card-svg</title>
    <desc>Created with Sketch.</desc>
    <defs></defs>
    <g id="unionpay-logobar-color-card-svg" stroke="none" stroke-width="1" fill="none" fill-rule="evenodd">
        <g id="union_pay" transform="translate(25.000000, 0.000000)" fill-rule="nonzero">
            <rect id="Rectangle" fill="#FFFFFF" x="1.68307174" y="0.505962393" width="108.316928" height="64.6141641" rx="6.73754188"></rect>
            <path d="M74.7714717,0.505962393 C70.8073478,0.773082604 67.404914,3.42819242 66.1797065,7.21059829 L54.3055174,63.2407761 C53.8016305,64.7851977 54.0593032,66.4772488 55.000019,67.8013382 C55.9407348,69.1254276 57.4530605,69.9247092 59.0761696,69.9556308 L102.967796,69.9556308 C104.753956,69.9531616 106.4658,69.2398538 107.725911,67.9729727 C108.986022,66.7060915 109.690925,64.9896675 109.685209,63.2021265 L109.654528,5.13594188 C109.35537,2.78190957 107.551639,0.901377737 105.213637,0.505962393" id="path22" fill="#01798A"></path>
            <rect id="Rectangle-19" fill="#DC1F2B" x="0" y="0.505962393" width="48.7292587" height="69.4496684" rx="6.82500017"></rect>
            <path d="M67.8434804,7.21686838 C68.9824334,3.48880194 72.2788394,0.833432876 76.1613457,0.516540171 L66.4240022,0.50974359 L43.4660217,0.505962393 C39.5556532,0.796540091 36.2258829,3.4626163 35.0845,7.21686838 L23.4993478,63.2414462 C22.9915064,64.7665294 23.2312785,66.4419312 24.1464485,67.7630461 C25.0616186,69.0841611 26.5452274,69.8965859 28.1504348,69.9556308 L60.9147957,69.9556308 C59.309466,69.8966291 57.82568,69.0843262 56.9101807,67.7632929 C55.9946815,66.4422596 55.7544247,64.7668294 56.2617478,63.2414462 L67.8434804,7.21686838 Z" id="path20" fill="#1A4580"></path>
            <path d="M49.3284239,38.3863248 L49.7538609,38.3863248 C50.0693984,38.4271081 50.3777225,38.2704526 50.5310348,37.991453 L51.6365587,36.3201641 L54.5969935,36.3201641 L53.9796304,37.4194154 L57.5293065,37.4194154 L57.0790239,39.1036752 L52.8553587,39.1036752 C52.5019635,39.7681939 51.8017163,40.1737525 51.0499239,40.1493197 L48.8499239,40.1493197 L49.3284,38.3863248 L49.3284239,38.3863248 Z M48.8423913,40.8001402 L56.6192478,40.8001402 L56.1235065,42.6297128 L52.9959196,42.6297128 L52.518687,44.3956752 L55.5621,44.3956752 L55.0663826,46.2250564 L52.0229696,46.2250564 L51.3159804,48.8345846 C51.140913,49.2707624 51.3711,49.466906 52.002763,49.4223932 L54.4831196,49.4223932 L54.0235587,51.1224239 L49.2615152,51.1224239 C48.3588297,51.1224239 48.0491,50.6000285 48.3323261,49.5552376 L49.2362391,46.2250564 L47.2908413,46.2250564 L47.7850043,44.3956752 L49.7306891,44.3956752 L50.2074913,42.6297128 L48.3478696,42.6297128 L48.8423435,40.8001402 L48.8423913,40.8001402 Z M61.2550783,36.3076 L61.1325957,37.378612 C61.9485701,36.7622436 62.9157325,36.3778579 63.9319283,36.2660547 L68.8552174,36.2660547 L66.9724478,43.1506085 C66.8163275,43.9376718 66.1469377,44.3304855 64.9642783,44.3290496 L59.38405,44.3290496 L58.076963,49.1632376 C58.001637,49.4222974 58.10805,49.5551419 58.3896261,49.5551419 L59.4875696,49.5551419 L59.0839891,51.0556547 L56.2926674,51.0556547 C55.2212514,51.0556547 54.7744681,50.7292513 54.9523174,50.0764444 L58.6459022,36.3074325 L61.2550543,36.3074325 L61.2550783,36.3076 Z M65.4241739,38.2536957 L61.029913,38.2537197 L60.5043043,40.1113641 C61.0900416,39.7446777 61.7681785,39.5528944 62.4590522,39.5585436 C63.6786174,39.5392547 65.0706913,39.5585436 65.0706913,39.5585436 L65.4241739,38.2536957 Z M63.8322109,42.5630872 C64.1570696,42.6076 64.3388804,42.477747 64.3606891,42.1712547 L64.6295913,41.1919966 L60.2286587,41.1919966 L59.8595848,42.5630872 L63.8322109,42.5630872 Z M60.8636935,44.787388 L63.400413,44.787388 L63.3532804,45.8962359 L64.0287043,45.8962359 C64.3699913,45.8962359 64.5391761,45.7858632 64.5391761,45.5679897 L64.7390652,44.8506393 L66.8473826,44.8506393 L66.5658543,45.8962359 C66.3499181,46.7528747 65.5509898,47.3310251 64.6704587,47.267853 L63.3191804,47.267853 L63.3128674,49.1632376 C63.2880457,49.4668103 63.559913,49.6215521 64.1195978,49.6215521 L65.3896674,49.6215521 L64.9797739,51.1223282 L61.9334196,51.1223282 C61.0795565,51.163347 60.6608391,50.7523692 60.669663,49.880588 L60.8636696,44.7872923 L60.8636935,44.787388 Z" id="path24" fill="#FFFFFF"></path>
            <path d="M30.1241457,27.1353983 C29.8586664,28.7028855 29.0084282,30.1110396 27.7453,31.0752137 C26.3562531,32.0382704 24.6903946,32.5198266 23.0021717,32.4463282 C21.5259199,32.5748978 20.0655762,32.062867 18.9922891,31.0403692 C18.3883245,30.3364939 18.07218,29.4303585 18.1071,28.5032342 C18.1111219,28.0433693 18.1614664,27.5850822 18.2573696,27.1353265 L20.320037,17.0883282 L23.4353326,17.0883282 L21.4007391,27.0216513 C21.3425213,27.2712357 21.3142082,27.5268702 21.3163978,27.7831556 C21.2943131,28.2308782 21.4267617,28.6725813 21.6915217,29.0341573 C22.140078,29.5523495 22.8110979,29.8218271 23.4931543,29.7576821 C24.3383607,29.7939573 25.1708661,29.5422255 25.8545913,29.0436342 C26.4875907,28.5397071 26.9124909,27.819713 27.0478522,27.0216513 L29.0888543,17.0884 L32.1883435,17.0883282 L30.1241457,27.1353983" id="path28" fill="#FFFFFF"></path>
            <path d="M43.2073783,23.1828513 L45.6472022,23.1828513 L43.7360478,32.1495043 L41.3010304,32.1495043 L43.2073783,23.1828513 M43.9753935,19.9161846 L46.4369304,19.9161846 L45.9771304,22.0926462 L43.5157609,22.0926462 L43.9753935,19.9161846" id="path34" fill="#FFFFFF"></path>
            <path d="M47.8069565,31.4670222 C47.1490992,30.8052585 46.7994751,29.8972406 46.8435,28.9648034 C46.8444232,28.761027 46.8559409,28.5574366 46.8780065,28.3548581 C46.901537,28.1273641 46.9312848,27.906188 46.9733717,27.7009504 C47.1921514,26.3723393 47.844306,25.1535989 48.8280435,24.2349573 C49.7644568,23.3824046 50.9921482,22.9221059 52.2577957,22.9490393 C53.2145445,22.8975014 54.1519792,23.2321218 54.8601804,23.8779692 C55.5176321,24.5512061 55.8639655,25.4688216 55.8154348,26.4089299 C55.813394,26.6168348 55.8008956,26.8245051 55.777987,27.0311521 C55.7497935,27.2618051 55.715813,27.4829812 55.6761413,27.7010222 C55.4613207,29.0147508 54.810873,30.2178675 53.8295761,31.1165675 C52.8908265,31.9555621 51.6690842,32.4070672 50.4107761,32.3800137 C49.4562066,32.4331789 48.5196087,32.1048094 47.8068848,31.467094 M52.4564174,29.6913675 C52.9512954,29.0757086 53.2711285,28.3378906 53.3822348,27.5556137 C53.4104283,27.4072376 53.43525,27.2522803 53.4508174,27.0975145 C53.4653075,26.9568305 53.4726105,26.8154978 53.4726978,26.6740684 C53.5024515,26.2075609 53.3524618,25.7473761 53.0535739,25.3881504 C52.7443619,25.0695853 52.3114158,24.9022684 51.8685152,24.9301709 C51.2364232,24.9114374 50.6288328,25.1754115 50.210887,25.6503453 C49.7116416,26.2790976 49.3882239,27.0292735 49.2737109,27.8241504 C49.2471913,27.9725265 49.2253109,28.1212137 49.2051043,28.2665026 C49.1905696,28.4039291 49.1848108,28.5421438 49.187863,28.6803043 C49.1579359,29.1429523 49.3081506,29.5992296 49.6070109,29.9534667 C49.9204225,30.2678843 50.3542893,30.4314557 50.7970913,30.4021368 C51.4279867,30.4221784 52.0354341,30.1619356 52.4564174,29.6912479" id="path18" fill="#FFFFFF"></path>
            <path d="M71.6452239,38.4621402 L72.2334848,36.3706838 L75.2079565,36.3706838 L75.0795913,37.1381949 C75.8963977,36.7232426 76.7828362,36.4630306 77.6941957,36.3706838 L81.372213,36.3706838 L80.7876826,38.4621402 L80.208987,38.4621402 L77.4344761,48.3261333 L78.0131717,48.3261333 L77.4627413,50.2850325 L76.8840457,50.2850325 L76.643337,51.1348923 L73.7627717,51.1348923 L74.0030739,50.2850325 L68.3202826,50.2850325 L68.8740848,48.3261333 L69.4434783,48.3261333 L72.2205,38.4621402 L71.6452239,38.4621402 Z M74.8543543,38.4621402 L74.0972913,41.1317128 C74.8772344,40.8354704 75.6853313,40.6195993 76.5090413,40.4874496 C76.7556565,39.5552171 77.0780043,38.4621402 77.0780043,38.4621402 L74.8543543,38.4621402 Z M73.74675,42.3830974 L72.9871522,45.1792444 C73.7490214,44.7971335 74.5656519,44.535964 75.40775,44.4051043 C75.6923152,43.3244479 75.9771196,42.3830974 75.9771196,42.3830974 L73.74675,42.3830974 Z M74.3034935,48.3261333 L74.872863,46.2977846 L72.6526087,46.2977846 L72.0802739,48.3261333 L74.3034935,48.3261333 Z M81.4975174,36.2411897 L84.2939087,36.2411897 L84.4125652,37.2834838 C84.3940565,37.5488137 84.5501848,37.6755316 84.881787,37.6755316 L85.3758543,37.6755316 L84.8759043,39.4415179 L82.8206022,39.4415179 C82.0357522,39.4825368 81.6321239,39.1794906 81.5947239,38.5252239 L81.4975174,36.2411897 Z M80.6781609,40.0293265 L89.736087,40.0292547 L89.2045957,41.9251179 L86.3206826,41.9251179 L85.8262326,43.6877538 L88.7072043,43.6877538 L88.1723174,45.5804581 L84.9635217,45.5804581 L84.2375935,46.6896889 L85.8081304,46.6896889 L86.1708913,48.9105436 C86.2142217,49.1317197 86.4082283,49.2391487 86.7398304,49.2391487 L87.2276565,49.2391487 L86.7150804,51.0681949 L84.9885587,51.0681949 C84.0938761,51.1127077 83.6313978,50.8093504 83.5935196,50.1554427 L83.177313,48.127094 L81.7481978,50.2849607 C81.4597061,50.8682553 80.8369155,51.2080892 80.1907174,51.1348205 L77.5538261,51.1348205 L78.0668087,49.3052479 L78.8894174,49.3052479 C79.236161,49.2990338 79.5595886,49.1292401 79.7617891,48.8472684 L81.9984957,45.5803863 L79.1145826,45.5803863 L79.6490391,43.6876821 L82.776913,43.6876821 L83.2743043,41.9250462 L80.1433696,41.9250462 L80.6782326,40.0292547 L80.6781609,40.0293265 Z" id="path26" fill="#FFFFFF"></path>
            <path d="M32.9938065,23.1796923 L35.1940935,23.1796923 L34.9424326,24.4750393 L35.2582283,24.1054154 C35.9162693,23.3597802 36.8666599,22.9386255 37.860613,22.9521983 C38.6242311,22.8834691 39.3739666,23.1882799 39.87335,23.7704923 C40.3095902,24.4431811 40.4301477,25.2731217 40.20335,26.0422735 L38.99115,32.1526393 L36.729837,32.1526393 L37.8245043,26.6141675 C37.9520592,26.1928419 37.91915,25.7391652 37.7321283,25.340694 C37.5033065,25.0404144 37.1324865,24.8841569 36.7579587,24.9301949 C36.2158546,24.9158649 35.6891731,25.1116591 35.2878804,25.4766974 C34.8656049,25.8850717 34.5868719,26.4193522 34.4934174,26.9995385 L33.4847174,32.1526393 L31.2187174,32.1526393 L32.9938065,23.1796923" id="path30" fill="#FFFFFF"></path>
            <path d="M58.2267783,23.1796923 L60.4289543,23.1796923 L60.1789913,24.4750393 L60.4912478,24.1054154 C61.149903,23.3603704 62.1001353,22.9393555 63.094063,22.9521983 C63.8571996,22.8827036 64.6066538,23.1877118 65.1047435,23.7704923 C65.5417585,24.4429245 65.6619138,25.273406 65.4334283,26.0422735 L64.2260826,32.1526393 L61.9615174,32.1526393 L63.0564957,26.6141675 C63.1832628,26.1928859 63.1509235,25.7396734 62.9656261,25.340694 C62.7362708,25.042059 62.3668854,24.8861419 61.9931065,24.9301949 C61.4501613,24.9166659 60.9227536,25.1122972 60.5197761,25.4766974 C60.0967288,25.8840491 59.8188191,26.4189895 59.728637,26.9995385 L58.7152739,32.1526393 L56.4520717,32.1526393 L58.2267065,23.1796923" id="path32" fill="#FFFFFF"></path>
            <path d="M69.1118522,17.6189162 L75.5050522,17.6189162 C76.5183887,17.5525748 77.5223881,17.8481116 78.3384609,18.4529573 C79.0122155,19.0656202 79.3713978,19.9514104 79.3147826,20.860694 L79.3147826,20.8921402 C79.3147826,21.0910838 79.3017261,21.3155385 79.2832174,21.5586838 C79.2516522,21.7988615 79.2108326,22.0421026 79.1582239,22.2949402 C78.9190714,23.6012547 78.2308629,24.7827001 77.2128261,25.6345983 C76.2042108,26.4740414 74.9276402,26.922591 73.6160413,26.8984034 L70.1874848,26.8984034 L69.1274196,32.1526393 L66.1589261,32.1526393 L69.1118522,17.6189641 M70.7097217,24.3709846 L73.5532457,24.3709846 C74.1812654,24.4054277 74.8019856,24.2224253 75.3110457,23.8527453 C75.773572,23.4348095 76.0783345,22.8703402 76.174163,22.2541128 C76.1989848,22.1210769 76.2145522,22.0011795 76.2334913,21.8906632 C76.2430565,21.7865128 76.2553717,21.6819556 76.2553717,21.5812034 C76.2901625,21.1362845 76.0820741,20.7072639 75.7112543,20.4593846 C75.1813325,20.1852663 74.5857431,20.063847 73.9909022,20.1086667 L71.5762109,20.1086667 L70.7097217,24.3708889" id="path38" fill="#FFFFFF"></path>
            <path d="M92.6011087,33.8873709 C92.0155624,35.2490215 91.2199229,36.5101693 90.2432826,37.6247009 C89.2461673,38.8271659 87.7230619,39.4636024 86.1675913,39.327747 L86.3834783,37.7892547 C88.4943304,37.1320684 89.6360348,34.1713436 90.286637,32.8603453 L89.5110413,23.2049402 L91.1438478,23.1828513 L92.5136348,23.1828513 L92.6609152,29.2396103 L95.228387,23.1828513 L97.8277348,23.1828513 L92.6010848,33.8874667" id="path40" fill="#FFFFFF"></path>
            <path d="M85.3325957,23.9126462 L84.299887,24.6299966 C83.2510839,23.567045 81.610021,23.3643328 80.3344348,24.1401641 C77.7442696,25.3533299 75.5799478,34.6581128 82.7112717,31.5934051 L83.1177935,32.0799111 L85.9234391,32.1526393 L87.7657957,23.6977641 L85.3325957,23.9126462 M83.737237,28.5350154 C83.2865478,29.8778906 82.2799283,30.7656103 81.4918022,30.5128923 C80.7035804,30.2663966 80.4220522,28.970906 80.8786478,27.6250632 C81.3289304,26.279053 82.3422696,25.3944684 83.1240826,25.6472342 C83.9122804,25.8937299 84.1967739,27.1890051 83.737213,28.5350154" id="path42" fill="#FFFFFF"></path>
        </g>
    </g>
</svg>