<?xml version="1.0" encoding="UTF-8"?>
<svg width="160px" height="70px" viewBox="0 0 160 70" version="1.1" xmlns="http://www.w3.org/2000/svg" xmlns:xlink="http://www.w3.org/1999/xlink">
    <!-- Generator: Sketch 50.2 (55047) - http://www.bohemiancoding.com/sketch -->
    <title>mastercard-logobar-color-card-svg</title>
    <desc>Created with Sketch.</desc>
    <defs>
        <polygon id="path-1" points="0 56.4388536 87.4538153 56.4388536 87.4538153 0.295380916 0 0.295380916"></polygon>
        <polygon id="path-3" points="0 56.4388536 87.4538153 56.4388536 87.4538153 0.295380916 0 0.295380916"></polygon>
        <polygon id="path-5" points="0 56.4388536 87.4538153 56.4388536 87.4538153 0.295380916 0 0.295380916"></polygon>
    </defs>
    <g id="mastercard-logobar-color-card-svg" stroke="none" stroke-width="1" fill="none" fill-rule="evenodd">
        <g id="mastercard_65x41" transform="translate(25.000000, 0.000000)">
            <rect id="Rectangle" fill="#000000" fill-rule="nonzero" x="0" y="0" width="110" height="70" rx="6.82926829"></rect>
            <g id="Page-1" transform="translate(10.153846, 5.121951)">
                <g id="Group-8" transform="translate(0.440623, 0.244722)">
                    <path d="M67.0448597,49.2267066 C67.0448597,48.276213 67.6376736,47.5156071 68.5952161,47.5156071 C69.5106745,47.5156071 70.1138795,48.2445651 70.1138795,49.2267066 C70.1138795,50.2088481 69.5106745,50.9378061 68.5952161,50.9378061 C67.6376736,50.9378061 67.0448597,50.1772002 67.0448597,49.2267066 Z M71.0709025,49.2267066 L71.0709025,44.6746758 L70.0723151,44.6746758 L70.0723151,47.31517 C69.7288881,46.861022 69.1672478,46.5756629 68.4596118,46.5756629 C67.0656419,46.5756629 66.0041883,47.6849237 66.0041883,49.2267066 C66.0041883,50.769017 67.0656419,51.8777504 68.4596118,51.8777504 C69.1672478,51.8777504 69.7288881,51.5923913 70.0723151,51.138243 L70.0723151,51.7511584 L71.0709025,51.7511584 L71.0709025,49.2267066 Z M57.0054709,49.2267066 C57.0054709,48.276213 57.5982848,47.5156071 58.5553078,47.5156071 C59.4707662,47.5156071 60.0744907,48.2445651 60.0744907,49.2267066 C60.0744907,50.2088481 59.4707662,50.9378061 58.5553078,50.9378061 C57.5982848,50.9378061 57.0054709,50.1772002 57.0054709,49.2267066 Z M61.0315137,49.2267066 L61.0315137,46.7022546 L60.0329263,46.7022546 L60.0329263,47.31517 C59.6894995,46.861022 59.127859,46.5756629 58.4202231,46.5756629 C57.0262533,46.5756629 55.9647995,47.6849237 55.9647995,49.2267066 C55.9647995,50.769017 57.0262533,51.8777504 58.4202231,51.8777504 C59.127859,51.8777504 59.6894995,51.5923913 60.0329263,51.138243 L60.0329263,51.7511584 L61.0315137,51.7511584 L61.0315137,49.2267066 Z M64.860125,46.5756629 C64.2361376,46.5756629 63.7882801,46.8715713 63.5077197,47.31517 L63.5077197,46.7022546 L62.5190038,46.7022546 L62.5190038,51.7511584 L63.5181108,51.7511584 L63.5181108,48.9096995 C63.5181108,48.0752484 63.9134931,47.5367058 64.6206095,47.5367058 C64.8393428,47.5367058 65.068467,47.5683537 65.2970719,47.6632976 L65.6301076,46.712804 C65.390592,46.6178602 65.0783386,46.5756629 64.860125,46.5756629 Z M26.47114,49.2267066 C26.47114,48.276213 27.0639539,47.5156071 28.0209768,47.5156071 C28.9364352,47.5156071 29.5401598,48.2445651 29.5401598,49.2267066 C29.5401598,50.2088481 28.9364352,50.9378061 28.0209768,50.9378061 C27.0639539,50.9378061 26.47114,50.1772002 26.47114,49.2267066 Z M30.4971827,49.2267066 L30.4971827,46.7022546 L29.4980757,46.7022546 L29.4980757,47.31517 C29.1551685,46.861022 28.5930084,46.5756629 27.8858922,46.5756629 C26.4919223,46.5756629 25.4304685,47.6849237 25.4304685,49.2267066 C25.4304685,50.769017 26.4919223,51.8777504 27.8858922,51.8777504 C28.5930084,51.8777504 29.1551685,51.5923913 29.4980757,51.138243 L29.4980757,51.7511584 L30.4971827,51.7511584 L30.4971827,49.2267066 Z M43.9594092,47.5156071 C44.6982184,47.5156071 45.1975121,48.0014032 45.27025,48.7936571 L42.5862216,48.7936571 C42.6797418,48.0541499 43.1582533,47.5156071 43.9594092,47.5156071 Z M43.9801914,46.5756629 C42.5233553,46.5756629 41.5247678,47.6421989 41.5247678,49.2161573 C41.5247678,50.8217635 42.5654392,51.8777504 44.0529293,51.8777504 C44.8021296,51.8777504 45.4884638,51.6873352 46.0921883,51.1698911 L45.5612016,50.420362 C45.1450369,50.7584676 44.6145698,50.9483554 44.1152761,50.9483554 C43.418551,50.9483554 42.7109151,50.5469537 42.5862216,49.6386575 L46.3000108,49.6386575 C46.3104019,49.5015164 46.3207932,49.3638477 46.3207932,49.2161573 C46.3104019,47.6421989 45.3741613,46.5756629 43.9801914,46.5756629 Z M50.9713427,49.2267066 C50.9713427,50.7584676 51.9803213,51.8777504 53.5826332,51.8777504 C54.3318336,51.8777504 54.8311273,51.7089612 55.3719856,51.2759117 L54.8519095,50.4836579 C54.446136,50.7790387 54.0195802,50.9378061 53.5514599,50.9378061 C52.687957,50.9272567 52.0114946,50.2404961 52.0114946,49.2267066 C52.0114946,48.2129171 52.687957,47.5261565 53.5514599,47.5156071 C54.0195802,47.5156071 54.446136,47.6738469 54.8519095,47.9697554 L55.3719856,47.1775015 C54.8311273,46.744452 54.3318336,46.5756629 53.5826332,46.5756629 C51.9803213,46.5756629 50.9713427,47.6949456 50.9713427,49.2267066 Z M35.8860219,47.1036563 C35.365946,46.7550013 34.647919,46.5756629 33.857154,46.5756629 C32.5987884,46.5756629 31.8288058,47.1775015 31.8288058,48.1812691 C31.8288058,49.0046434 32.3904463,49.5015164 33.5038557,49.6597561 L34.0135405,49.7336014 C34.6063545,49.8179959 34.9289989,50.0295096 34.9289989,50.3143413 C34.9289989,50.7051935 34.492052,50.9589048 33.7532428,50.9589048 C32.9733886,50.9589048 32.4631843,50.7157429 32.0994946,50.4309113 L31.5892903,51.2231652 C32.3280995,51.7722571 33.2123846,51.8777504 33.7428517,51.8777504 C35.1789056,51.8777504 35.969151,51.2020665 35.969151,50.2404961 C35.969151,49.3532984 35.365946,48.8991503 34.2733187,48.7409105 L33.7636339,48.6670653 C33.2955136,48.6037693 32.879349,48.4555514 32.879349,48.1179732 C32.879349,47.7482195 33.2747313,47.4945085 33.8680648,47.4945085 C34.5024431,47.4945085 35.1160394,47.7376704 35.4179015,47.927558 L35.8860219,47.1036563 Z M49.837151,46.5756629 C49.2131637,46.5756629 48.7658256,46.8715713 48.4847457,47.31517 L48.4847457,46.7022546 L47.4965494,46.7022546 L47.4965494,51.7511584 L48.4951368,51.7511584 L48.4951368,48.9096995 C48.4951368,48.0752484 48.8905193,47.5367058 49.598155,47.5367058 C49.8163688,47.5367058 50.045493,47.5683537 50.2740979,47.6632976 L50.6071336,46.712804 C50.3681376,46.6178602 50.0558843,46.5756629 49.837151,46.5756629 Z M40.6093094,46.7022546 L38.7991748,46.7022546 L38.7991748,45.1710212 L37.7901962,45.1710212 L37.7901962,46.7022546 L36.7391335,46.7022546 L36.7391335,47.6211004 L37.7901962,47.6211004 L37.7901962,50.0084111 C37.7901962,51.1804404 38.1959698,51.8777504 39.4751177,51.8777504 C39.9432381,51.8777504 40.4846158,51.7300599 40.8280427,51.486898 L40.5157893,50.5891511 C40.1931447,50.7790387 39.8393268,50.8745102 39.5587662,50.8745102 C39.0173886,50.8745102 38.7991748,50.5364044 38.7991748,50.0295096 L38.7991748,47.6211004 L40.6093094,47.6211004 L40.6093094,46.7022546 Z M24.4007077,51.7511584 L24.4007077,48.5715939 C24.4007077,47.378466 23.6930718,46.5862122 22.4861423,46.5756629 C21.8517638,46.5651135 21.1960836,46.7655507 20.7383545,47.4734098 C20.3949276,46.9137685 19.8540694,46.5756629 19.0944779,46.5756629 C18.5640107,46.5756629 18.0023704,46.7233533 17.5965968,47.31517 L17.5965968,46.7022546 L16.5980093,46.7022546 L16.5980093,51.7511584 L17.6069879,51.7511584 L17.6069879,48.856953 C17.6069879,47.9803045 18.1270638,47.5156071 18.8658731,47.5156071 C19.5839001,47.5156071 19.989154,47.9908539 19.989154,48.8464036 L19.989154,51.7511584 L20.9986522,51.7511584 L20.9986522,48.856953 C20.9986522,47.9803045 21.5395104,47.5156071 22.2575374,47.5156071 C22.9963467,47.5156071 23.3912094,47.9908539 23.3912094,48.8464036 L23.3912094,51.7511584 L24.4007077,51.7511584 Z" id="Fill-2" fill="#FFFFFF" fill-rule="nonzero"></path>
                    <g id="Fill-4-Clipped">
                        <mask id="mask-2" fill="white">
                            <use xlink:href="#path-1"></use>
                        </mask>
                        <g id="path-1"></g>
                        <polygon id="Fill-4" fill="#FF5F00" fill-rule="nonzero" mask="url(#mask-2)" points="34.7245536 38.1410608 52.7297814 38.1410608 52.7297814 8.28332484 34.7245536 8.28332484"></polygon>
                    </g>
                    <g id="Fill-6-Clipped">
                        <mask id="mask-4" fill="white">
                            <use xlink:href="#path-3"></use>
                        </mask>
                        <g id="path-1"></g>
                        <path d="M36.5830588,23.2122455 C36.5830588,17.1548269 39.3767137,11.7604329 43.7269597,8.28337758 C40.5451962,5.74046437 36.5311032,4.22347238 32.1678683,4.22347238 C21.838567,4.22347238 13.4653958,12.7251681 13.4653958,23.2122455 C13.4653958,33.699323 21.838567,42.2010188 32.1678683,42.2010188 C36.5311032,42.2010188 40.5451962,40.6840268 43.7269597,38.1411136 C39.3767137,34.6640582 36.5830588,29.2696643 36.5830588,23.2122455" id="Fill-6" fill="#EC001B" fill-rule="nonzero" mask="url(#mask-4)"></path>
                    </g>
                    <g id="Fill-7-Clipped">
                        <mask id="mask-6" fill="white">
                            <use xlink:href="#path-5"></use>
                        </mask>
                        <g id="path-1"></g>
                        <path d="M73.9885236,23.2122455 C73.9885236,33.699323 65.6153522,42.2010188 55.2860509,42.2010188 C50.9228162,42.2010188 46.9082037,40.6840268 43.7269597,38.1411136 C48.0772055,34.6640582 50.8708604,29.2696643 50.8708604,23.2122455 C50.8708604,17.1548269 48.0772055,11.7604329 43.7269597,8.28337758 C46.9082037,5.74046437 50.9228162,4.22347238 55.2860509,4.22347238 C65.6153522,4.22347238 73.9885236,12.7251681 73.9885236,23.2122455" id="Fill-7" fill="#F89E1B" fill-rule="nonzero" mask="url(#mask-6)"></path>
                    </g>
                </g>
            </g>
        </g>
    </g>
</svg>