<?xml version="1.0" encoding="UTF-8"?>
<svg width="160px" height="70px" viewBox="0 0 160 70" version="1.1" xmlns="http://www.w3.org/2000/svg" xmlns:xlink="http://www.w3.org/1999/xlink">
    <!-- Generator: Sketch 50.2 (55047) - http://www.bohemiancoding.com/sketch -->
    <title>visa-logobar-color-card-svg</title>
    <desc>Created with Sketch.</desc>
    <defs>
        <linearGradient x1="0%" y1="2.64282227%" x2="98.7738715%" y2="95.7495117%" id="linearGradient-1">
            <stop stop-color="#1B1E5E" offset="0%"></stop>
            <stop stop-color="#112996" offset="100%"></stop>
        </linearGradient>
    </defs>
    <g id="visa-logobar-color-card-svg" stroke="none" stroke-width="1" fill="none" fill-rule="evenodd">
        <g id="visa_65x41" transform="translate(25.000000, 0.000000)" fill-rule="nonzero">
            <rect id="Rectangle" fill="url(#linearGradient-1)" x="0" y="0" width="110" height="70" rx="6.82926829"></rect>
            <g id="Page-1" transform="translate(13.968254, 22.750000)" fill="#FFFFFF">
                <path d="M77.6148975,24.668075 L71.9247748,24.668075 C71.7302862,23.7952337 71.5005512,22.949834 71.3633695,22.090084 C71.251545,21.3912068 70.9670388,21.0928748 70.2063272,21.1099944 C68.0953526,21.1570728 65.9808278,21.0828045 63.8721353,21.1656326 C63.4752974,21.1812416 62.9417851,21.6208092 62.7450142,22.0034797 C62.3083658,22.8521522 62.0451597,23.7891915 61.7112073,24.6904813 L55.2695014,24.6904813 C55.4467472,24.2048423 55.5801253,23.7846599 55.7510318,23.3798347 C58.6209431,16.5766074 61.5202686,9.78571612 64.3508764,2.96637631 C65.0223312,1.34883807 66.0832703,0.5935673 67.8354427,0.656003018 C69.3900837,0.711389541 70.9485282,0.667583837 72.5731546,0.667583837 C74.2614271,8.7051754 75.928907,16.6428195 77.6148975,24.668075 Z M68.3042947,7.60701169 L67.9944315,7.53601624 C66.9568208,10.3786037 65.9189566,13.2214429 64.841789,16.1717823 L70.0934884,16.1717823 C69.4826369,13.2476256 68.893339,10.4271928 68.3042947,7.60701169 Z" id="Combined-Shape"></path>
                <path d="M0,0.837721165 C0.358802305,0.774781934 0.71760461,0.658721992 1.07666049,0.656959694 C4.16134603,0.64336482 7.24628515,0.640343738 10.3309707,0.654693881 C12.3296136,0.664260645 13.2832924,1.4207902 13.6679589,3.38147313 C14.4913024,7.57851281 15.2725532,11.7841122 16.0725683,15.9856835 C16.109336,16.1790329 16.1628394,16.3691093 16.2784675,16.8534897 C16.5492809,16.3084359 16.7232303,16.0118663 16.849762,15.6961631 C18.7053912,11.0603111 20.5731917,6.42899069 22.3877424,1.77702625 C22.702677,0.96989355 23.0533651,0.576900993 24.0060296,0.628259404 C25.7234628,0.72115771 27.4495174,0.654693881 29.3784285,0.654693881 C28.4168889,2.96254961 27.5276171,5.11884766 26.6211025,7.26809653 C24.3209641,12.7201445 21.9871011,18.1583457 19.7346339,23.6295273 C19.3631531,24.5320759 18.9014012,24.7981829 17.9669937,24.756643 C16.2406855,24.680109 14.5085452,24.7347402 12.6397304,24.7347402 C11.93379,22.0527737 11.2281032,19.393717 10.5340807,16.7318911 C9.59282686,13.1199345 8.6079589,9.5177964 7.74911551,5.88645453 C7.39284891,4.37968933 6.59689101,3.40539003 5.1632032,2.91622633 C3.45616637,2.3336608 1.73974743,1.77828504 0.0273856176,1.21107668 L0,0.837721165 Z" id="Fill-3"></path>
                <path d="M56.5510469,1.37632993 C56.2077123,2.9860637 55.8775636,4.53462054 55.5395541,6.11968213 C54.0827912,5.81631504 52.7099604,5.37800623 51.313801,5.28712199 C50.1732408,5.21310546 48.9238987,5.34754365 47.8690454,5.75916622 C46.3225187,6.36287933 46.2215976,7.79512447 47.5515751,8.79057135 C48.320908,9.36608769 49.2081514,9.78752877 50.046202,10.2716573 C50.6664354,10.6299074 51.2945297,10.9748144 51.9167917,11.3295399 C57.3972117,14.4523328 55.7659924,20.9297868 51.9172989,23.2462022 C48.7370173,25.1605618 45.2831331,25.307588 41.7448098,24.8894196 C40.6197174,24.756492 39.4989356,24.4793077 38.4210073,24.1321348 C38.1073404,24.0311803 37.7102491,23.4221803 37.7589346,23.1082393 C37.9825839,21.6654205 38.3507682,20.2447562 38.64136,18.931592 C40.5788925,19.3338996 42.4322396,19.8386722 44.3195651,20.0617289 C45.3214222,20.1803063 46.4490503,19.9844395 47.4019685,19.6234201 C49.2380727,18.927564 49.4292649,17.1992527 47.8774132,16.0170021 C47.280001,15.5618256 46.5765963,15.2443601 45.9246664,14.859172 C44.874631,14.2385912 43.755117,13.7068806 42.7912955,12.9737644 C39.5602996,10.5156098 39.2697079,6.35633364 42.068873,3.4004556 C43.5398356,1.84736713 45.3992684,1.00599549 47.4714467,0.570204259 C50.4225006,-0.0501248037 54.0072273,0.244934311 56.5510469,1.37632993" id="Fill-5"></path>
                <path d="M33.2087888,24.6741675 L26.9795751,24.6741675 C28.7094332,16.6544506 30.4223023,8.71328198 32.1448069,0.727552336 L38.3613421,0.727552336 C36.6335126,8.75683593 34.9259685,16.6929695 33.2087888,24.6741675" id="Fill-8"></path>
            </g>
        </g>
    </g>
</svg>