<?xml version="1.0" encoding="utf-8"?>
<!-- Generator: Adobe Illustrator 23.0.4, SVG Export Plug-In . SVG Version: 6.00 Build 0)  -->
<svg version="1.1" id="Layer_1" xmlns="http://www.w3.org/2000/svg" xmlns:xlink="http://www.w3.org/1999/xlink" x="0px" y="0px"
	 viewBox="0 0 40 40" style="enable-background:new 0 0 40 40;" xml:space="preserve">
<style type="text/css">
	.st0{fill:#00112C;}
</style>
<path class="st0" d="M5,4C4.4,4,4,4.4,4,5s0.4,1,1,1s1-0.4,1-1S5.6,4,5,4L5,4z"/>
<path class="st0" d="M9,4C8.4,4,8,4.4,8,5s0.4,1,1,1s1-0.4,1-1S9.6,4,9,4L9,4z"/>
<path class="st0" d="M13,4c-0.6,0-1,0.4-1,1s0.4,1,1,1c0.6,0,1-0.4,1-1S13.6,4,13,4L13,4z"/>
<path class="st0" d="M2,7V2h35c0.6,0,1,0.4,1,1v5H3C2.4,8,2,7.6,2,7L2,7z M38,38H3c-0.6,0-1-0.4-1-1V10h35c0.6,0,1,0.4,1,1L38,38
	L38,38z M38,0H2C0.9,0,0,0.9,0,2v6v2v28c0,1.1,0.9,2,2,2h36c1.1,0,2-0.9,2-2V10V8V2C40,0.9,39.1,0,38,0L38,0z"/>
<path class="st0" d="M27.8,19.1L25,16.2c-0.8-0.8-2.1-0.8-2.8,0L19.3,19c-0.4,0.4-0.6,0.9-0.6,1.4c0,0.5,0.2,1,0.6,1.4l0.7,0.7
	L18.6,24l-0.7-0.7c-0.8-0.8-2.1-0.8-2.8,0l-2.8,2.8c-0.4,0.4-0.6,0.9-0.6,1.4c0,0.5,0.2,1,0.6,1.4l2.8,2.8c0.4,0.4,0.9,0.6,1.4,0.6
	c0.5,0,1-0.2,1.4-0.6l2.8-2.8c0.4-0.4,0.6-0.9,0.6-1.4c0-0.5-0.2-1-0.6-1.4L20,25.4l1.4-1.4l0.7,0.7c0.4,0.4,0.9,0.6,1.4,0.6
	c0,0,0,0,0,0c0.5,0,1-0.2,1.4-0.6l2.8-2.8c0.4-0.4,0.6-0.9,0.6-1.4C28.4,19.9,28.2,19.4,27.8,19.1z M19.3,27.5 M19.3,27.5l-2.1,2.1
	c-0.4,0.4-1,0.4-1.4,0l-2.1-2.1l2.8-2.8l0.7,0.7l-0.7,0.7c-0.4,0.4-0.4,1,0,1.4c0.2,0.2,0.5,0.3,0.7,0.3s0.5-0.1,0.7-0.3l0.7-0.7
	L19.3,27.5z M23.5,23.3l-0.7-0.7l0.7-0.7c0.4-0.4,0.4-1,0-1.4s-1-0.4-1.4,0l-0.7,0.7l-0.7-0.7l2.1-2.1c0.4-0.4,1-0.4,1.4,0l2.1,2.1
	L23.5,23.3z"/>
</svg>
