<?xml version="1.0" encoding="utf-8"?>
<!-- Generator: Adobe Illustrator 22.1.0, SVG Export Plug-In . SVG Version: 6.00 Build 0)  -->
<svg version="1.1" id="Layer_1" xmlns="http://www.w3.org/2000/svg" xmlns:xlink="http://www.w3.org/1999/xlink" x="0px" y="0px"
	 viewBox="0 0 40 40" style="enable-background:new 0 0 40 40;" xml:space="preserve">
<style type="text/css">
	.st0{fill:#0ABF53;}
</style>
<g>
	<path class="st0" d="M13,21c3.3,0,6-2.7,6-6s-2.7-6-6-6s-6,2.7-6,6S9.7,21,13,21z M13,11c2.2,0,4,1.8,4,4s-1.8,4-4,4s-4-1.8-4-4
		S10.8,11,13,11z"/>
	<path class="st0" d="M18,23H8c-4.4,0-8,3.6-8,8v8c0,0.6,0.4,1,1,1s1-0.4,1-1v-8c0-3.3,2.7-6,6-6h10c3.3,0,6,2.7,6,6v8
		c0,0.6,0.4,1,1,1s1-0.4,1-1v-8C26,26.6,22.4,23,18,23z"/>
	<path class="st0" d="M27,12c3.3,0,6-2.7,6-6s-2.7-6-6-6s-6,2.7-6,6S23.7,12,27,12z M27,2c2.2,0,4,1.8,4,4s-1.8,4-4,4s-4-1.8-4-4
		S24.8,2,27,2z"/>
	<path class="st0" d="M32,14H22c-0.6,0-1,0.4-1,1s0.4,1,1,1h10c3.3,0,6,2.7,6,6v8c0,0.6,0.4,1,1,1s1-0.4,1-1v-8
		C40,17.6,36.4,14,32,14z"/>
</g>
</svg>
