<?xml version="1.0" encoding="utf-8"?>
<!-- Generator: Adobe Illustrator 22.1.0, SVG Export Plug-In . SVG Version: 6.00 Build 0)  -->
<svg version="1.1" id="Layer_1" xmlns="http://www.w3.org/2000/svg" xmlns:xlink="http://www.w3.org/1999/xlink" x="0px" y="0px"
	 viewBox="0 0 40 40" style="enable-background:new 0 0 40 40;" xml:space="preserve">
<style type="text/css">
	.st0{fill:#0ABF53;}
</style>
<g>
	<path class="st0" d="M20,14c-3.3,0-6,2.7-6,6s2.7,6,6,6s6-2.7,6-6S23.3,14,20,14z M20,24c-2.2,0-4-1.8-4-4s1.8-4,4-4s4,1.8,4,4
		S22.2,24,20,24z"/>
	<path class="st0" d="M36,8c2.2,0,4-1.8,4-4s-1.8-4-4-4s-4,1.8-4,4S33.8,8,36,8z M36,2c1.1,0,2,0.9,2,2s-0.9,2-2,2s-2-0.9-2-2
		S34.9,2,36,2z"/>
	<path class="st0" d="M4,32c-2.2,0-4,1.8-4,4s1.8,4,4,4s4-1.8,4-4S6.2,32,4,32z M4,38c-1.1,0-2-0.9-2-2s0.9-2,2-2s2,0.9,2,2
		S5.1,38,4,38z"/>
	<path class="st0" d="M4,8c2.2,0,4-1.8,4-4S6.2,0,4,0S0,1.8,0,4S1.8,8,4,8z M4,2c1.1,0,2,0.9,2,2S5.1,6,4,6S2,5.1,2,4S2.9,2,4,2z"/>
	<path class="st0" d="M36,32c-2.2,0-4,1.8-4,4s1.8,4,4,4s4-1.8,4-4S38.2,32,36,32z M36,38c-1.1,0-2-0.9-2-2s0.9-2,2-2s2,0.9,2,2
		S37.1,38,36,38z"/>
	<circle class="st0" cx="13" cy="13" r="1"/>
	<circle class="st0" cx="9" cy="9" r="1"/>
	<circle class="st0" cx="31" cy="9" r="1"/>
	<circle class="st0" cx="31" cy="31" r="1"/>
	<circle class="st0" cx="27" cy="27" r="1"/>
	<circle class="st0" cx="27" cy="13" r="1"/>
	<circle class="st0" cx="13" cy="27" r="1"/>
	<circle class="st0" cx="9" cy="31" r="1"/>
</g>
</svg>
