<?xml version="1.0" encoding="utf-8"?>
<!-- Generator: Adobe Illustrator 22.1.0, SVG Export Plug-In . SVG Version: 6.00 Build 0)  -->
<svg version="1.1" id="Layer_1" xmlns="http://www.w3.org/2000/svg" xmlns:xlink="http://www.w3.org/1999/xlink" x="0px" y="0px"
	 viewBox="0 0 40 40" style="enable-background:new 0 0 40 40;" xml:space="preserve">
<style type="text/css">
	.st0{fill:#0ABF53;}
</style>
<g>
	<path class="st0" d="M20,0C9,0,0,9,0,20s9,20,20,20s20-9,20-20S31,0,20,0z M20,38c-9.9,0-18-8.1-18-18S10.1,2,20,2s18,8.1,18,18
		S29.9,38,20,38z"/>
	<path class="st0" d="M33.8,18.7C33.2,17.1,31.7,16,30,16s-3.2,1.1-3.8,2.7c-0.2,0.5,0.1,1.1,0.6,1.3c0.5,0.2,1.1-0.1,1.3-0.6
		c0.3-0.8,1-1.3,1.9-1.3s1.6,0.5,1.9,1.3c0.1,0.4,0.5,0.7,0.9,0.7c0.1,0,0.2,0,0.3-0.1C33.7,19.8,33.9,19.2,33.8,18.7z"/>
	<path class="st0" d="M11.9,19.3c0.1,0.4,0.5,0.7,0.9,0.7c0.1,0,0.2,0,0.3-0.1c0.5-0.2,0.8-0.8,0.6-1.3c-0.5-1.5-2-2.6-3.7-2.6
		s-3.2,1.1-3.8,2.7C6,19.2,6.3,19.8,6.8,20c0.5,0.2,1.1-0.1,1.3-0.6c0.3-0.8,1-1.3,1.9-1.3S11.6,18.5,11.9,19.3z"/>
	<path class="st0" d="M30,22c-0.5,0-1,0.3-1.1,0.9c-0.5,4.6-4.3,8.1-9,8.1c-4.6,0-8.4-3.4-8.9-8c-0.1-0.5-0.6-0.9-1.1-0.9
		C9.4,22.2,9,22.7,9,23.2c0.7,5.6,5.4,9.8,11,9.8c5.7,0,10.4-4.3,10.9-9.9C31,22.5,30.6,22.1,30,22z"/>
</g>
</svg>
